<svg width="492" height="698" viewBox="0 0 492 698" fill="none" xmlns="http://www.w3.org/2000/svg">
<path d="M492 375.536C492 511.644 381.861 621.98 246 621.98C110.139 621.98 0 511.644 0 375.536C0 239.428 110.139 129.093 246 129.093C381.861 129.093 492 239.428 492 375.536Z" fill="#96D6D4"/>
<path d="M52.7407 378.222C52.7407 378.222 58.1674 361.389 72.4154 361.389C72.4154 361.389 87.342 361.389 90.734 378.056C90.734 378.056 106.339 378.222 110.749 395.056H34.082C34.082 395.056 35.778 378.222 52.7407 378.222Z" fill="white"/>
<path d="M398.577 327.066C398.577 327.066 404.003 310.233 418.251 310.233C418.251 310.233 433.178 310.233 436.569 326.899C436.569 326.899 452.175 327.066 456.585 343.899H379.918C379.918 343.899 381.613 327.066 398.577 327.066Z" fill="white"/>
<path d="M409.329 217.222C409.329 217.222 413.118 206.42 420.998 201.686C420.998 201.686 436.75 217.056 448.417 234.056H390.75C390.75 234.056 392.441 217.222 409.329 217.222Z" fill="white"/>
<path d="M65.8394 235.889C65.8394 235.889 63.382 225.087 55.5034 220.353C55.5034 220.353 42.082 234.723 32.082 252.723H84.4154C84.4154 252.723 82.7274 235.889 65.8394 235.889Z" fill="white"/>
<path d="M17.1406 465.915C17.1406 465.915 34.622 508.285 51.8073 526.063L148.695 498.951V444.582C148.695 444.582 122.326 425.027 90.622 426.509C90.622 426.509 63.0646 422.517 17.1406 465.915Z" fill="#66C693"/>
<path d="M37.832 506.808C37.832 506.808 45.9134 520.144 52.1654 526.142L148.832 499.142V487.475L37.832 506.808Z" fill="#56A676"/>
<g opacity="0.899994">
<path d="M341.441 441.475V495.188L442.583 526.426C442.583 526.426 468.101 492.29 478.201 461.284C478.201 461.284 438.393 427.76 405.249 426.236C405.249 426.236 375.345 419.76 341.441 441.475" fill="#66C693"/>
</g>
<g opacity="0.899994">
<path d="M341.441 483.167V495.907L441.737 526.425C441.737 526.425 447.896 520.079 451.96 512.353L341.441 483.167Z" fill="#56A676"/>
</g>
<path d="M457.452 696.832H33.0078C24.2065 696.832 17.0078 689.215 17.0078 679.908V548.261C17.0078 538.955 24.2065 531.337 33.0078 531.337L257.897 469.277L457.452 531.337C466.253 531.337 473.452 538.955 473.452 548.261V679.908C473.452 689.215 466.253 696.832 457.452 696.832Z" fill="#85828A" stroke="black" stroke-width="0.4" stroke-miterlimit="10"/>
<path d="M342.117 696.832H148.34V281.277H342.117V696.832Z" fill="#9F5B35" stroke="black" stroke-width="0.4" stroke-miterlimit="10"/>
<path d="M146.598 648.499C146.598 657.335 139.434 664.499 130.598 664.499C121.76 664.499 114.598 657.335 114.598 648.499C114.598 639.663 121.76 632.499 130.598 632.499C139.434 632.499 146.598 639.663 146.598 648.499Z" fill="#955D32"/>
<path d="M168.82 106.501C168.82 106.501 152.82 141.834 155.354 182.359C156.594 202.162 141.141 208.501 141.486 260.501C141.658 286.487 160.153 323.834 196.82 348.501C200.869 351.225 195.068 363.278 192.82 367.611C177.486 397.167 177.928 407.791 183.486 419.834C186.02 425.325 181.062 439.041 185.486 444.057C188.82 447.833 196.176 441.39 196.82 449.166C199.486 481.39 264.82 519.611 294.153 449.833C296.661 443.866 311.486 451.166 305.486 427.834C301.13 410.897 322.745 409.834 292.153 359.167C290.648 356.675 296.82 348.501 296.82 348.501C296.82 348.501 371.486 288.501 342.153 217.167C339.165 209.903 333.114 191.558 333.486 183.834C334.622 160.217 337.486 136.501 320.153 106.501C315.393 98.2608 320.153 106.501 330.153 73.1674C336.168 53.1154 330.381 23.4261 310.82 1.16743C307.048 -3.12324 286.153 76.5008 286.153 76.5008L211.486 93.1674C211.486 93.1674 182.536 -2.36457 179.486 1.16743C141.486 45.1674 168.82 106.501 168.82 106.501Z" fill="#9F5B35" stroke="black" stroke-width="0.4" stroke-miterlimit="10"/>
<g opacity="0.889999">
<path d="M285.559 416.578C285.559 446.293 267.253 470.382 244.671 470.382C222.087 470.382 203.781 446.293 203.781 416.578C203.781 386.862 244.671 278.804 244.671 278.804C244.671 278.804 285.559 386.862 285.559 416.578Z" fill="#FCFEFD"/>
</g>
<g opacity="0.899994">
<path d="M244.477 119.342C246.368 118.192 264.092 166.108 267.908 159.532C272.292 151.976 255.894 109.592 259.933 111.295C263.886 111.247 276.902 141.039 279.065 138.424C288.193 127.388 267.385 95.2549 273.564 91.9815C273.564 91.9815 285.532 116.359 292.034 112.675C301.648 107.231 279.065 71.7482 279.065 71.7482L211.628 70.8282C211.628 70.8282 194.998 105.778 201.242 111.755C204.258 114.643 213.992 102.399 213.992 102.399C216.289 105.079 205.488 136.778 210.37 137.046C216.574 137.387 227.845 121.411 227.845 121.411C226.856 122.287 217.334 159.628 223.821 158.199C234.917 155.752 244.477 119.342 244.477 119.342Z" fill="#743F2B"/>
</g>
<path d="M244.39 252.178L224.316 202.144L244.39 152.111L264.954 202.144L244.39 252.178Z" fill="#F4F4F4"/>
<path d="M191.21 216.568C191.21 226.149 183.445 233.916 173.864 233.916C164.284 233.916 156.516 226.149 156.516 216.568C156.516 206.988 164.284 199.221 173.864 199.221C183.445 199.221 191.21 206.988 191.21 216.568Z" fill="#F4F4F4" stroke="#7F4529" stroke-width="2.66667" stroke-miterlimit="10"/>
<path d="M180.083 216.76C180.083 220.197 177.302 222.982 173.862 222.982C170.425 222.982 167.641 220.197 167.641 216.76C167.641 213.324 170.425 210.537 173.862 210.537C177.299 210.537 180.083 213.324 180.083 216.76Z" fill="black"/>
<path d="M331.781 222.091C331.781 231.673 324.015 239.439 314.434 239.439C304.854 239.439 297.086 231.673 297.086 222.091C297.086 212.511 304.854 204.745 314.434 204.745C324.015 204.745 331.781 212.511 331.781 222.091Z" fill="#F4F4F4" stroke="#7F4529" stroke-width="2.66667" stroke-miterlimit="10"/>
<path d="M320.658 222.283C320.658 225.721 317.874 228.506 314.436 228.506C310.999 228.506 308.215 225.721 308.215 222.283C308.215 218.847 310.999 216.061 314.436 216.061C317.874 216.061 320.658 218.847 320.658 222.283Z" fill="black"/>
<path d="M234.802 404.853C234.802 404.853 232.762 380.999 216.729 384.999C197.286 389.855 204.254 441.265 207.865 440.519C207.865 440.519 215.319 468.585 243.665 471.519C272.65 474.519 282.198 442.186 282.198 442.186C285.89 444.779 293.11 394.666 275.378 384.999C263.195 378.361 255.261 404.186 255.261 404.186C255.261 404.186 250.829 391.186 245.031 392.853C240.933 394.03 234.802 404.853 234.802 404.853Z" fill="#F89DBE"/>
<path d="M295.007 418.211C293.476 421.272 294.401 426.922 294.007 429.878C293.463 433.952 290.315 437.739 285.789 438.199C278.641 438.928 271.887 435.042 272.005 425.711C272.139 415.248 281.055 401.596 286.173 402.378C298.591 399.071 297.173 413.878 295.007 418.211Z" fill="#050607"/>
<path d="M194.048 420.44C195.771 423.26 195.483 428.86 196.145 431.698C197.06 435.61 200.352 438.966 204.584 438.936C211.268 438.895 217.127 434.4 216.076 425.324C214.903 415.148 205.281 402.791 200.627 404.09C188.805 402.176 191.608 416.448 194.048 420.44Z" fill="#050607"/>
<path d="M245.162 109.052C246.913 107.941 262.075 152.964 265.607 146.608C269.665 139.305 252.094 99.6289 255.829 101.274C259.487 101.228 275.162 130.022 277.162 127.496C285.607 116.829 263.89 85.7702 269.607 82.6076C269.607 82.6076 283.145 106.169 289.162 102.608C298.057 97.3449 277.162 63.0516 277.162 63.0516C277.162 63.0516 289.239 60.6036 289.162 57.2742C288.994 49.9089 262.051 45.7182 262.051 45.7182C262.051 45.7182 272.233 37.2462 270.051 34.6076C266.019 29.7289 247.089 45.2742 247.089 45.2742C247.089 45.2742 225.627 29.2049 221.162 34.6076C218.709 37.5769 229.607 47.4956 229.607 47.4956C229.607 47.4956 203.815 51.1889 203.829 58.1622C203.835 60.8036 213.607 62.1622 213.607 62.1622C213.607 62.1622 199.385 95.9409 205.162 101.718C207.953 104.509 216.957 92.6756 216.957 92.6756C219.083 95.2662 209.089 125.904 213.607 126.162C219.347 126.493 230.941 111.052 230.941 111.052C230.025 111.898 220.051 147.989 226.051 146.608C236.317 144.244 245.162 109.052 245.162 109.052Z" fill="#010302"/>
<path d="M20.0352 538.749C62.7018 615.415 58.7018 696.082 58.7018 696.082" stroke="#766F72" stroke-width="4" stroke-miterlimit="10"/>
<path d="M295.078 190.604C295.078 190.604 304.19 183.714 312.411 183.714C321.506 183.714 329.746 190.604 329.745 190.604" stroke="black" stroke-width="4" stroke-miterlimit="10"/>
<path d="M159.398 187.16C159.398 187.16 168.51 180.271 176.732 180.271C185.844 180.271 194.065 187.16 194.065 187.16" stroke="black" stroke-width="4" stroke-miterlimit="10"/>
<g opacity="0.300003">
<path d="M171.664 242.809C171.664 242.809 189.264 243.774 191.397 233.742" stroke="#191515" stroke-width="2.66667" stroke-miterlimit="10"/>
</g>
<g opacity="0.300003">
<path d="M312.761 247.326C312.761 247.326 295.289 244.992 295.066 234.737" stroke="#191515" stroke-width="2.66667" stroke-miterlimit="10"/>
</g>
<g opacity="0.800003">
<path d="M185.434 342.483L203.511 260.013L197.69 351.292C188.687 345.971 185.434 342.483 185.434 342.483Z" fill="#743F2B"/>
</g>
<g opacity="0.800003">
<path d="M302.77 343.816L284.691 261.346L292.027 357.234C296.817 348.5 302.77 343.816 302.77 343.816Z" fill="#743F2B"/>
</g>
<g opacity="0.800003">
<path d="M148.84 292.29C165.137 330.513 197.876 350.216 197.876 350.216C197.876 357.236 190.619 372.589 190.619 372.589C171.359 367.254 148.84 333.476 148.84 333.476" fill="#743F2B"/>
</g>
<g opacity="0.800003">
<path d="M341.435 288.439C332.245 320.736 292.027 349.773 292.027 357.236C292.027 363.995 298.373 370.109 298.373 370.109C317.631 364.775 341.435 329.624 341.435 329.624" fill="#743F2B"/>
</g>
<g opacity="0.600006">
<path d="M306.304 451.611C313.117 472.944 293.858 474.129 293.858 474.129C293.858 474.129 287.045 511.759 246.785 511.759C206.749 511.759 198.156 472.944 198.156 472.944C191.045 478.575 185.416 467.611 185.416 467.611C180.378 454.871 182.156 417.687 182.156 417.687L185.118 422.279C185.118 422.279 175.205 446.515 196.229 444.204C196.229 444.204 199.425 486.225 246.006 487.908C281.28 489.181 295.045 446.575 295.045 446.575C311.798 446.811 305.388 424.071 306.109 426.916C308.152 434.959 306.304 451.611 306.304 451.611Z" fill="#743F2B"/>
</g>
<g opacity="0.399994">
<path d="M222.965 405.781C233.298 427.448 223.965 445.446 223.965 445.446" stroke="black" stroke-width="2.66667" stroke-miterlimit="10"/>
</g>
<g opacity="0.399994">
<path d="M265.773 405.781C255.44 427.448 264.773 445.446 264.773 445.446" stroke="black" stroke-width="2.66667" stroke-miterlimit="10"/>
</g>
<path d="M379.133 518.806C404.989 565.475 399.133 629.472 399.133 629.472L369.133 644.472L395.799 660.806L386.466 695.806" stroke="#6B6769" stroke-width="4" stroke-miterlimit="10"/>
<path d="M470.333 539.022C427.666 615.689 431.666 696.355 431.666 696.355" stroke="#766F72" stroke-width="4" stroke-miterlimit="10"/>
<path d="M111.233 519.863C85.3772 566.535 91.2332 630.53 91.2332 630.53L121.233 645.53L94.5665 661.863L103.9 696.863" stroke="#6B6769" stroke-width="4" stroke-miterlimit="10"/>
<g opacity="0.800003">
<path d="M128.083 696.946H48.75V602.946H128.083" fill="#EFE0DA"/>
</g>
<path d="M79.9336 685.873H120.598V659.428H79.9336V685.873Z" fill="#E5B427"/>
<path d="M74.3211 696.946H32.0558C23.7798 696.946 17.0078 690.176 17.0078 681.9V634.072C17.0078 625.796 23.7798 619.022 32.0558 619.022H71.7505C81.1411 622.34 94.7505 629.198 94.7505 637.474V680.808C94.7505 689.085 84.9305 696.082 76.6545 696.082" fill="#9D5B39"/>
<g opacity="0.600006">
<g opacity="0.800003">
<path d="M48.75 637.476H94.75" stroke="#774025" stroke-width="4" stroke-miterlimit="10"/>
</g>
<g opacity="0.800003">
<path d="M48.75 659.429H94.75" stroke="#774025" stroke-width="4" stroke-miterlimit="10"/>
</g>
<g opacity="0.800003">
<path d="M48.75 680.809H94.75" stroke="#774025" stroke-width="4" stroke-miterlimit="10"/>
</g>
</g>
<path d="M340.453 694.543H149.809V531.056C149.809 531.056 232.594 594.122 340.453 531.056V694.543Z" fill="#5469B6"/>
<path d="M340.453 694.543H149.809V531.056C149.809 531.056 232.594 594.122 340.453 531.056V694.543Z" stroke="#3E5B93" stroke-width="4" stroke-miterlimit="10"/>
<path d="M178.345 102.478C181.644 100.611 183.858 73.8829 184.012 64.1429C184.386 40.4762 178.345 27.1429 178.345 27.1429C157.345 51.4776 178.345 102.478 178.345 102.478" fill="url(#paint0_linear_1186_2637)"/>
<path d="M305.607 61.4753C305.76 71.2166 307.972 97.9433 311.273 99.8086C311.273 99.8086 332.273 48.8086 311.273 24.4766C311.273 24.4766 305.232 37.81 305.607 61.4753Z" fill="url(#paint1_linear_1186_2637)"/>
<path d="M150.328 553.03C150.328 553.03 224.995 604.639 341.44 554.806" stroke="#3E5B93" stroke-width="4" stroke-miterlimit="10"/>
<path d="M157.561 537.415L157.188 555.71" stroke="#3E5B93" stroke-width="2.66667" stroke-miterlimit="10"/>
<path d="M169.71 541.91L169.539 562.246" stroke="#3E5B93" stroke-width="2.66667" stroke-miterlimit="10"/>
<path d="M183.272 546.561L183.102 566.899" stroke="#3E5B93" stroke-width="2.66667" stroke-miterlimit="10"/>
<path d="M196.15 550.361L195.98 570.699" stroke="#3E5B93" stroke-width="2.66667" stroke-miterlimit="10"/>
<path d="M210.333 553.41L210.164 573.749" stroke="#3E5B93" stroke-width="2.66667" stroke-miterlimit="10"/>
<path d="M225.482 555.931L225.312 576.267" stroke="#3E5B93" stroke-width="2.66667" stroke-miterlimit="10"/>
<path d="M241.474 557.272L241.305 577.61" stroke="#3E5B93" stroke-width="2.66667" stroke-miterlimit="10"/>
<path d="M257.654 557.272L257.484 577.61" stroke="#3E5B93" stroke-width="2.66667" stroke-miterlimit="10"/>
<path d="M276.138 554.598L275.969 574.934" stroke="#3E5B93" stroke-width="2.66667" stroke-miterlimit="10"/>
<path d="M294.04 550.361L293.871 570.699" stroke="#3E5B93" stroke-width="2.66667" stroke-miterlimit="10"/>
<path d="M311.185 545.54L311.016 565.879" stroke="#3E5B93" stroke-width="2.66667" stroke-miterlimit="10"/>
<path d="M328.701 538.749L328.531 559.085" stroke="#3E5B93" stroke-width="2.66667" stroke-miterlimit="10"/>
<path d="M159.645 575.697L180.217 596.268" stroke="#3E5B93" stroke-width="4" stroke-miterlimit="10"/>
<path d="M181.552 575.697L160.98 596.268" stroke="#3E5B93" stroke-width="4" stroke-miterlimit="10"/>
<path d="M195.074 585.983L215.646 606.554" stroke="#3E5B93" stroke-width="4" stroke-miterlimit="10"/>
<path d="M216.978 585.983L196.406 606.554" stroke="#3E5B93" stroke-width="4" stroke-miterlimit="10"/>
<path d="M235.562 589.507L256.134 610.08" stroke="#3E5B93" stroke-width="4" stroke-miterlimit="10"/>
<path d="M257.47 589.507L236.898 610.08" stroke="#3E5B93" stroke-width="4" stroke-miterlimit="10"/>
<path d="M273.645 585.98L294.217 606.554" stroke="#3E5B93" stroke-width="4" stroke-miterlimit="10"/>
<path d="M295.552 585.98L274.98 606.554" stroke="#3E5B93" stroke-width="4" stroke-miterlimit="10"/>
<path d="M310.219 575.694L330.791 596.268" stroke="#3E5B93" stroke-width="4" stroke-miterlimit="10"/>
<path d="M332.123 575.694L311.551 596.268" stroke="#3E5B93" stroke-width="4" stroke-miterlimit="10"/>
<path d="M158.98 624.173L179.552 644.744" stroke="#3E5B93" stroke-width="4" stroke-miterlimit="10"/>
<path d="M180.884 624.173L160.312 644.744" stroke="#3E5B93" stroke-width="4" stroke-miterlimit="10"/>
<path d="M195.742 634.46L216.314 655.03" stroke="#3E5B93" stroke-width="4" stroke-miterlimit="10"/>
<path d="M217.646 634.46L197.074 655.03" stroke="#3E5B93" stroke-width="4" stroke-miterlimit="10"/>
<path d="M235.562 637.119L256.134 657.689" stroke="#3E5B93" stroke-width="4" stroke-miterlimit="10"/>
<path d="M257.47 637.119L236.898 657.689" stroke="#3E5B93" stroke-width="4" stroke-miterlimit="10"/>
<path d="M274.312 634.272L294.884 654.843" stroke="#3E5B93" stroke-width="4" stroke-miterlimit="10"/>
<path d="M296.217 634.272L275.645 654.843" stroke="#3E5B93" stroke-width="4" stroke-miterlimit="10"/>
<path d="M310.883 623.986L331.455 644.557" stroke="#3E5B93" stroke-width="4" stroke-miterlimit="10"/>
<path d="M332.791 623.986L312.219 644.557" stroke="#3E5B93" stroke-width="4" stroke-miterlimit="10"/>
<path d="M310.883 672.127L331.455 692.697" stroke="#3E5B93" stroke-width="4" stroke-miterlimit="10"/>
<path d="M332.791 672.127L312.219 692.697" stroke="#3E5B93" stroke-width="4" stroke-miterlimit="10"/>
<path d="M274.312 682.413C277.959 686.058 281.607 689.707 285.255 693.353" stroke="#3E5B93" stroke-width="4" stroke-miterlimit="10"/>
<path d="M296.219 682.413C292.572 686.058 288.923 689.707 285.277 693.353" stroke="#3E5B93" stroke-width="4" stroke-miterlimit="10"/>
<path d="M234.898 685.452C237.566 688.118 240.236 690.788 242.904 693.457" stroke="#3E5B93" stroke-width="4" stroke-miterlimit="10"/>
<path d="M256.803 685.451C254.24 688.011 251.68 690.574 249.117 693.137" stroke="#3E5B93" stroke-width="4" stroke-miterlimit="10"/>
<path d="M196.406 682.412C199.834 685.839 203.265 689.27 206.692 692.696" stroke="#3E5B93" stroke-width="4" stroke-miterlimit="10"/>
<path d="M218.311 682.413C214.885 685.84 211.455 689.268 208.027 692.694" stroke="#3E5B93" stroke-width="4" stroke-miterlimit="10"/>
<path d="M158.98 672.127L179.552 692.697" stroke="#3E5B93" stroke-width="4" stroke-miterlimit="10"/>
<path d="M180.884 672.127L160.312 692.697" stroke="#3E5B93" stroke-width="4" stroke-miterlimit="10"/>
<path d="M167.551 611.03C176.512 617.129 189.003 617.126 185.455 617.126" stroke="#3E5B93" stroke-width="4" stroke-miterlimit="10"/>
<path d="M200.695 619.793C208.915 623.493 221.554 621.996 218.601 622.269" stroke="#3E5B93" stroke-width="4" stroke-miterlimit="10"/>
<path d="M232.695 623.22C242.903 624.294 254.162 622.827 252.505 623.22" stroke="#3E5B93" stroke-width="4" stroke-miterlimit="10"/>
<path d="M265.457 622.27C276.95 622.27 275.645 622.158 286.41 620.363" stroke="#3E5B93" stroke-width="4" stroke-miterlimit="10"/>
<path d="M302.766 616.506C313.771 617.017 321.292 612.982 321.292 612.982" stroke="#3E5B93" stroke-width="4" stroke-miterlimit="10"/>
<path d="M168.887 663.602L186.791 667.793" stroke="#3E5B93" stroke-width="4" stroke-miterlimit="10"/>
<path d="M202.027 671.22L219.933 672.744" stroke="#3E5B93" stroke-width="4" stroke-miterlimit="10"/>
<path d="M234.027 674.27H253.837" stroke="#3E5B93" stroke-width="4" stroke-miterlimit="10"/>
<path d="M266.789 672.743L285.837 671.219" stroke="#3E5B93" stroke-width="4" stroke-miterlimit="10"/>
<path d="M300.695 667.793L319.362 663.602" stroke="#3E5B93" stroke-width="4" stroke-miterlimit="10"/>
<defs>
<linearGradient id="paint0_linear_1186_2637" x1="169.012" y1="64.81" x2="184.028" y2="64.81" gradientUnits="userSpaceOnUse">
<stop stop-color="#74402B"/>
<stop offset="0.548304" stop-color="#74402B"/>
<stop offset="1" stop-color="#290A07"/>
</linearGradient>
<linearGradient id="paint1_linear_1186_2637" x1="320.607" y1="62.1424" x2="305.59" y2="62.1424" gradientUnits="userSpaceOnUse">
<stop stop-color="#74402B"/>
<stop offset="0.548304" stop-color="#74402B"/>
<stop offset="1" stop-color="#290A07"/>
</linearGradient>
</defs>
</svg>
